<mxfile host="app.diagrams.net" modified="2024-06-13T09:04:00.913Z" agent="Mozilla/5.0 (Windows NT 10.0; Win64; x64; rv:126.0) Gecko/20100101 Firefox/126.0" etag="xGmNPQFWnpvf3GRATUQ7" version="24.5.2" type="device">
  <diagram id="C5RBs43oDa-KdzZeNtuy" name="Page-1">
    <mxGraphModel dx="581" dy="451" grid="1" gridSize="10" guides="1" tooltips="1" connect="1" arrows="1" fold="1" page="1" pageScale="1" pageWidth="827" pageHeight="1169" math="0" shadow="0">
      <root>
        <mxCell id="WIyWlLk6GJQsqaUBKTNV-0" />
        <mxCell id="WIyWlLk6GJQsqaUBKTNV-1" parent="WIyWlLk6GJQsqaUBKTNV-0" />
        <mxCell id="tZ9EkLWYgpEJxMU8oc_F-18" style="edgeStyle=orthogonalEdgeStyle;rounded=0;orthogonalLoop=1;jettySize=auto;html=1;exitX=1;exitY=0.75;exitDx=0;exitDy=0;entryX=0;entryY=0.75;entryDx=0;entryDy=0;" edge="1" parent="WIyWlLk6GJQsqaUBKTNV-1" source="tZ9EkLWYgpEJxMU8oc_F-11">
          <mxGeometry relative="1" as="geometry">
            <mxPoint x="160" y="110" as="targetPoint" />
          </mxGeometry>
        </mxCell>
        <mxCell id="tZ9EkLWYgpEJxMU8oc_F-36" value="&lt;i&gt;&lt;font data-font-src=&quot;http://mirrors.ctan.org/fonts/cm-unicode/fonts/otf/cmunss.otf&quot; face=&quot;Computer Modern&quot;&gt;s&lt;sub&gt;1&lt;/sub&gt;&lt;/font&gt;&lt;/i&gt;" style="edgeLabel;html=1;align=center;verticalAlign=middle;resizable=0;points=[];" vertex="1" connectable="0" parent="tZ9EkLWYgpEJxMU8oc_F-18">
          <mxGeometry x="-0.0722" y="1" relative="1" as="geometry">
            <mxPoint y="-9" as="offset" />
          </mxGeometry>
        </mxCell>
        <mxCell id="tZ9EkLWYgpEJxMU8oc_F-11" value="&lt;font data-font-src=&quot;http://mirrors.ctan.org/fonts/cm-unicode/fonts/otf/cmunss.otf&quot; face=&quot;Computer Modern&quot;&gt;&lt;i&gt;&lt;font style=&quot;font-size: 10px;&quot;&gt;H&lt;/font&gt;&lt;font style=&quot;font-size: 10px;&quot;&gt;ash&lt;sub&gt;1&lt;/sub&gt;&lt;/font&gt;&lt;/i&gt;&lt;/font&gt;" style="shape=manualInput;whiteSpace=wrap;html=1;flipH=1;size=13;fillColor=#f5f5f5;strokeColor=#666666;fontColor=#333333;" vertex="1" parent="WIyWlLk6GJQsqaUBKTNV-1">
          <mxGeometry x="80" y="80" width="40" height="40" as="geometry" />
        </mxCell>
        <mxCell id="tZ9EkLWYgpEJxMU8oc_F-13" value="" style="endArrow=classic;html=1;rounded=0;entryX=0;entryY=0.75;entryDx=0;entryDy=0;" edge="1" parent="WIyWlLk6GJQsqaUBKTNV-1" target="tZ9EkLWYgpEJxMU8oc_F-11">
          <mxGeometry width="50" height="50" relative="1" as="geometry">
            <mxPoint x="40" y="110" as="sourcePoint" />
            <mxPoint x="80" y="105" as="targetPoint" />
          </mxGeometry>
        </mxCell>
        <mxCell id="tZ9EkLWYgpEJxMU8oc_F-34" value="&lt;i&gt;&lt;font data-font-src=&quot;http://mirrors.ctan.org/fonts/cm-unicode/fonts/otf/cmunss.otf&quot; face=&quot;Computer Modern&quot;&gt;s&lt;sub&gt;0 &lt;/sub&gt;= 0*&lt;sub&gt;&lt;br&gt;&lt;/sub&gt;&lt;/font&gt;&lt;/i&gt;" style="edgeLabel;html=1;align=center;verticalAlign=middle;resizable=0;points=[];" vertex="1" connectable="0" parent="tZ9EkLWYgpEJxMU8oc_F-13">
          <mxGeometry x="-0.1857" y="-1" relative="1" as="geometry">
            <mxPoint y="-11" as="offset" />
          </mxGeometry>
        </mxCell>
        <mxCell id="tZ9EkLWYgpEJxMU8oc_F-16" value="" style="endArrow=classic;html=1;rounded=0;entryX=0;entryY=0.25;entryDx=0;entryDy=0;" edge="1" parent="WIyWlLk6GJQsqaUBKTNV-1" target="tZ9EkLWYgpEJxMU8oc_F-11">
          <mxGeometry width="50" height="50" relative="1" as="geometry">
            <mxPoint x="60" y="60" as="sourcePoint" />
            <mxPoint x="80.00000000000006" y="74.99999999999994" as="targetPoint" />
            <Array as="points">
              <mxPoint x="60" y="90" />
            </Array>
          </mxGeometry>
        </mxCell>
        <mxCell id="tZ9EkLWYgpEJxMU8oc_F-29" value="&lt;font face=&quot;Computer Modern&quot;&gt;G̃&lt;sub&gt;0&lt;/sub&gt;&lt;/font&gt;" style="edgeLabel;html=1;align=center;verticalAlign=middle;resizable=0;points=[];" vertex="1" connectable="0" parent="tZ9EkLWYgpEJxMU8oc_F-16">
          <mxGeometry x="-0.3984" y="1" relative="1" as="geometry">
            <mxPoint y="-25" as="offset" />
          </mxGeometry>
        </mxCell>
        <mxCell id="tZ9EkLWYgpEJxMU8oc_F-19" value="" style="endArrow=classic;html=1;rounded=0;entryX=0;entryY=0.25;entryDx=0;entryDy=0;" edge="1" parent="WIyWlLk6GJQsqaUBKTNV-1">
          <mxGeometry width="50" height="50" relative="1" as="geometry">
            <mxPoint x="140" y="60" as="sourcePoint" />
            <mxPoint x="160" y="90" as="targetPoint" />
            <Array as="points">
              <mxPoint x="140" y="90" />
            </Array>
          </mxGeometry>
        </mxCell>
        <mxCell id="tZ9EkLWYgpEJxMU8oc_F-41" value="&lt;font face=&quot;Computer Modern&quot;&gt;G̃&lt;sub&gt;1&lt;/sub&gt;&lt;/font&gt;" style="edgeLabel;html=1;align=center;verticalAlign=middle;resizable=0;points=[];" vertex="1" connectable="0" parent="tZ9EkLWYgpEJxMU8oc_F-19">
          <mxGeometry x="-0.7317" y="-1" relative="1" as="geometry">
            <mxPoint y="-17" as="offset" />
          </mxGeometry>
        </mxCell>
        <mxCell id="tZ9EkLWYgpEJxMU8oc_F-20" value="" style="endArrow=classic;html=1;rounded=0;exitX=1;exitY=0.75;exitDx=0;exitDy=0;dashed=1;" edge="1" parent="WIyWlLk6GJQsqaUBKTNV-1">
          <mxGeometry width="50" height="50" relative="1" as="geometry">
            <mxPoint x="200" y="110" as="sourcePoint" />
            <mxPoint x="240" y="110" as="targetPoint" />
          </mxGeometry>
        </mxCell>
        <mxCell id="tZ9EkLWYgpEJxMU8oc_F-37" value="&lt;font face=&quot;Computer Modern&quot;&gt;&lt;i&gt;...&lt;/i&gt;&lt;/font&gt;" style="edgeLabel;html=1;align=center;verticalAlign=middle;resizable=0;points=[];" vertex="1" connectable="0" parent="tZ9EkLWYgpEJxMU8oc_F-20">
          <mxGeometry x="0.06" relative="1" as="geometry">
            <mxPoint x="-1" y="-10" as="offset" />
          </mxGeometry>
        </mxCell>
        <mxCell id="tZ9EkLWYgpEJxMU8oc_F-21" value="" style="endArrow=classic;html=1;rounded=0;entryX=0;entryY=0.25;entryDx=0;entryDy=0;dashed=1;" edge="1" parent="WIyWlLk6GJQsqaUBKTNV-1">
          <mxGeometry width="50" height="50" relative="1" as="geometry">
            <mxPoint x="220" y="60" as="sourcePoint" />
            <mxPoint x="240" y="90" as="targetPoint" />
            <Array as="points">
              <mxPoint x="220" y="90" />
            </Array>
          </mxGeometry>
        </mxCell>
        <mxCell id="tZ9EkLWYgpEJxMU8oc_F-42" value="&lt;font data-font-src=&quot;http://mirrors.ctan.org/fonts/cm-unicode/fonts/otf/cmunss.otf&quot; face=&quot;Computer Modern&quot;&gt;...&lt;/font&gt;" style="edgeLabel;html=1;align=center;verticalAlign=middle;resizable=0;points=[];" vertex="1" connectable="0" parent="tZ9EkLWYgpEJxMU8oc_F-21">
          <mxGeometry x="-0.6841" relative="1" as="geometry">
            <mxPoint y="-18" as="offset" />
          </mxGeometry>
        </mxCell>
        <mxCell id="tZ9EkLWYgpEJxMU8oc_F-28" value="" style="endArrow=classic;html=1;rounded=0;entryX=0;entryY=0.25;entryDx=0;entryDy=0;" edge="1" parent="WIyWlLk6GJQsqaUBKTNV-1">
          <mxGeometry width="50" height="50" relative="1" as="geometry">
            <mxPoint x="300" y="60" as="sourcePoint" />
            <mxPoint x="320" y="90" as="targetPoint" />
            <Array as="points">
              <mxPoint x="300" y="90" />
            </Array>
          </mxGeometry>
        </mxCell>
        <mxCell id="tZ9EkLWYgpEJxMU8oc_F-43" value="&lt;font face=&quot;Computer Modern&quot;&gt;G̃&lt;sub&gt;t-1&lt;/sub&gt;&lt;/font&gt;" style="edgeLabel;html=1;align=center;verticalAlign=middle;resizable=0;points=[];" vertex="1" connectable="0" parent="tZ9EkLWYgpEJxMU8oc_F-28">
          <mxGeometry x="-0.4937" y="2" relative="1" as="geometry">
            <mxPoint y="-23" as="offset" />
          </mxGeometry>
        </mxCell>
        <mxCell id="tZ9EkLWYgpEJxMU8oc_F-30" value="&lt;font data-font-src=&quot;http://mirrors.ctan.org/fonts/cm-unicode/fonts/otf/cmunss.otf&quot; face=&quot;Computer Modern&quot;&gt;&lt;i&gt;&lt;font style=&quot;font-size: 10px;&quot;&gt;H&lt;/font&gt;&lt;font style=&quot;font-size: 10px;&quot;&gt;ash&lt;sub&gt;1&lt;/sub&gt;&lt;/font&gt;&lt;/i&gt;&lt;/font&gt;" style="shape=manualInput;whiteSpace=wrap;html=1;flipH=1;size=13;fillColor=#f5f5f5;fontColor=#333333;strokeColor=#666666;" vertex="1" parent="WIyWlLk6GJQsqaUBKTNV-1">
          <mxGeometry x="160" y="80" width="40" height="40" as="geometry" />
        </mxCell>
        <mxCell id="tZ9EkLWYgpEJxMU8oc_F-31" value="&lt;font data-font-src=&quot;http://mirrors.ctan.org/fonts/cm-unicode/fonts/otf/cmunss.otf&quot; face=&quot;Computer Modern&quot;&gt;&lt;i&gt;&lt;font style=&quot;font-size: 10px;&quot;&gt;H&lt;/font&gt;&lt;font style=&quot;font-size: 10px;&quot;&gt;ash&lt;sub&gt;1&lt;/sub&gt;&lt;/font&gt;&lt;/i&gt;&lt;/font&gt;" style="shape=manualInput;whiteSpace=wrap;html=1;flipH=1;size=13;fillColor=#f5f5f5;fontColor=#333333;strokeColor=#666666;" vertex="1" parent="WIyWlLk6GJQsqaUBKTNV-1">
          <mxGeometry x="240" y="80" width="40" height="40" as="geometry" />
        </mxCell>
        <mxCell id="tZ9EkLWYgpEJxMU8oc_F-32" value="&lt;font data-font-src=&quot;http://mirrors.ctan.org/fonts/cm-unicode/fonts/otf/cmunss.otf&quot; face=&quot;Computer Modern&quot;&gt;&lt;i&gt;&lt;font style=&quot;font-size: 10px;&quot;&gt;H&lt;/font&gt;&lt;font style=&quot;font-size: 10px;&quot;&gt;ash&lt;sub&gt;1&lt;/sub&gt;&lt;/font&gt;&lt;/i&gt;&lt;/font&gt;" style="shape=manualInput;whiteSpace=wrap;html=1;flipH=1;size=13;fillColor=#f5f5f5;fontColor=#333333;strokeColor=#666666;" vertex="1" parent="WIyWlLk6GJQsqaUBKTNV-1">
          <mxGeometry x="320" y="80" width="40" height="40" as="geometry" />
        </mxCell>
        <mxCell id="tZ9EkLWYgpEJxMU8oc_F-33" style="edgeStyle=orthogonalEdgeStyle;rounded=0;orthogonalLoop=1;jettySize=auto;html=1;exitX=1;exitY=0.75;exitDx=0;exitDy=0;entryX=1.059;entryY=0.767;entryDx=0;entryDy=0;entryPerimeter=0;" edge="1" parent="WIyWlLk6GJQsqaUBKTNV-1" source="tZ9EkLWYgpEJxMU8oc_F-31" target="tZ9EkLWYgpEJxMU8oc_F-32">
          <mxGeometry relative="1" as="geometry" />
        </mxCell>
        <mxCell id="tZ9EkLWYgpEJxMU8oc_F-38" value="&lt;i&gt;&lt;font data-font-src=&quot;http://mirrors.ctan.org/fonts/cm-unicode/fonts/otf/cmunss.otf&quot; face=&quot;Computer Modern&quot;&gt;s&lt;sub&gt;t-1&lt;/sub&gt;&lt;/font&gt;&lt;/i&gt;" style="edgeLabel;html=1;align=center;verticalAlign=middle;resizable=0;points=[];" vertex="1" connectable="0" parent="tZ9EkLWYgpEJxMU8oc_F-33">
          <mxGeometry x="-0.0805" relative="1" as="geometry">
            <mxPoint y="-10" as="offset" />
          </mxGeometry>
        </mxCell>
        <mxCell id="tZ9EkLWYgpEJxMU8oc_F-46" style="edgeStyle=orthogonalEdgeStyle;rounded=0;orthogonalLoop=1;jettySize=auto;html=1;exitX=1;exitY=0.75;exitDx=0;exitDy=0;entryX=0;entryY=0.75;entryDx=0;entryDy=0;" edge="1" parent="WIyWlLk6GJQsqaUBKTNV-1">
          <mxGeometry relative="1" as="geometry">
            <mxPoint x="360" y="110" as="sourcePoint" />
            <mxPoint x="400" y="110" as="targetPoint" />
            <Array as="points">
              <mxPoint x="380" y="110" />
              <mxPoint x="380" y="110" />
            </Array>
          </mxGeometry>
        </mxCell>
        <mxCell id="tZ9EkLWYgpEJxMU8oc_F-47" value="&lt;i&gt;&lt;font data-font-src=&quot;http://mirrors.ctan.org/fonts/cm-unicode/fonts/otf/cmunss.otf&quot; face=&quot;Computer Modern&quot;&gt;s&lt;sub&gt;t&lt;/sub&gt;&lt;/font&gt;&lt;/i&gt;" style="edgeLabel;html=1;align=center;verticalAlign=middle;resizable=0;points=[];" vertex="1" connectable="0" parent="tZ9EkLWYgpEJxMU8oc_F-46">
          <mxGeometry x="-0.0722" y="1" relative="1" as="geometry">
            <mxPoint y="-9" as="offset" />
          </mxGeometry>
        </mxCell>
      </root>
    </mxGraphModel>
  </diagram>
</mxfile>
